<?xml version="1.0" standalone="no"?>
<!DOCTYPE svg PUBLIC "-//W3C//DTD SVG 20010904//EN"
 "http://www.w3.org/TR/2001/REC-SVG-20010904/DTD/svg10.dtd">
<svg version="1.0" xmlns="http://www.w3.org/2000/svg"
 width="549.000000pt" height="549.000000pt" viewBox="0 0 549.000000 549.000000"
 preserveAspectRatio="xMidYMid meet">

<g transform="translate(0.000000,549.000000) scale(0.100000,-0.100000)"
fill="#000000" stroke="none">
<path d="M3755 5003 c-22 -1 -98 -8 -170 -13 -1066 -85 -1825 -448 -2316
-1107 -322 -432 -541 -1012 -654 -1733 -61 -392 -105 -992 -105 -1437 l0 -173
403 0 404 0 7 282 c7 321 20 555 41 773 8 83 15 153 15 158 0 4 535 7 1190 7
l1190 0 0 405 0 405 -1110 0 c-903 0 -1110 2 -1110 13 0 17 70 223 109 319
119 298 308 570 521 753 373 320 855 483 1582 535 81 5 390 10 687 10 l541 0
0 405 0 405 -592 -2 c-326 -1 -611 -3 -633 -5z"/>
<path d="M4170 2165 l0 -1625 405 0 405 0 0 1625 0 1625 -405 0 -405 0 0
-1625z"/>
</g>
</svg>
