<?xml version="1.0" standalone="no"?>
<!DOCTYPE svg PUBLIC "-//W3C//DTD SVG 20010904//EN"
 "http://www.w3.org/TR/2001/REC-SVG-20010904/DTD/svg10.dtd">
<svg version="1.0" xmlns="http://www.w3.org/2000/svg"
 width="1080.000000pt" height="866.000000pt" viewBox="0 0 1080.000000 866.000000"
 preserveAspectRatio="xMidYMid meet">

<g transform="translate(0.000000,866.000000) scale(0.100000,-0.100000)"
fill="#000000" stroke="none">
<path d="M3565 5468 c-3 -13 -4 -480 -3 -1038 l3 -1015 230 0 230 0 0 1035 0
1035 -227 3 -228 2 -5 -22z"/>
<path d="M4267 5484 c-4 -4 -7 -369 -7 -811 l0 -803 230 0 230 0 -2 808 -3
807 -221 3 c-121 1 -223 -1 -227 -4z"/>
<path d="M4957 5484 c-4 -4 -7 -472 -7 -1041 l0 -1033 230 0 230 0 -2 1038 -3
1037 -221 3 c-121 1 -223 -1 -227 -4z"/>
<path d="M5645 5477 c-3 -7 -4 -111 -3 -232 l3 -220 228 -3 227 -2 -2 232 -3
233 -223 3 c-175 2 -224 0 -227 -11z"/>
<path d="M6332 5253 l3 -228 575 0 575 0 3 228 2 227 -580 0 -580 0 2 -227z"/>
<path d="M5640 4100 l0 -690 230 0 230 0 0 690 0 690 -230 0 -230 0 0 -690z"/>
<path d="M6335 4778 c-3 -7 -4 -317 -3 -688 l3 -675 233 -3 232 -2 0 690 0
690 -230 0 c-175 0 -232 -3 -235 -12z"/>
</g>
</svg>
