<?xml version="1.0" standalone="no"?>
<!DOCTYPE svg PUBLIC "-//W3C//DTD SVG 20010904//EN"
 "http://www.w3.org/TR/2001/REC-SVG-20010904/DTD/svg10.dtd">
<svg version="1.0" xmlns="http://www.w3.org/2000/svg"
 width="1280.000000pt" height="905.000000pt" viewBox="0 0 1280.000000 905.000000"
 preserveAspectRatio="xMidYMid meet">

<g transform="translate(0.000000,905.000000) scale(0.100000,-0.100000)"
fill="#000000" stroke="none">
<path d="M5865 8849 c-936 -65 -1795 -291 -2575 -680 -564 -281 -1016 -603
-1425 -1014 -629 -633 -999 -1354 -1110 -2165 -23 -162 -30 -517 -16 -692 71
-834 443 -1616 1086 -2277 292 -301 765 -681 847 -681 44 0 83 25 103 66 26
55 8 105 -52 147 -25 18 -98 72 -162 120 -914 694 -1463 1603 -1561 2587 -16
159 -13 497 5 657 94 813 481 1559 1137 2188 694 667 1640 1154 2697 1390 293
65 584 109 931 142 265 24 901 24 1170 0 309 -29 584 -69 845 -123 1988 -416
3514 -1696 3860 -3239 60 -268 69 -364 69 -705 0 -278 -2 -332 -22 -460 -84
-537 -283 -1023 -606 -1480 -261 -370 -643 -749 -1041 -1035 -44 -31 -88 -69
-97 -84 -28 -41 -23 -95 11 -133 26 -29 36 -33 78 -33 48 0 56 5 206 117 768
577 1269 1217 1541 1973 190 528 244 1129 151 1682 -180 1062 -852 2011 -1925
2716 -757 497 -1698 837 -2675 966 -360 48 -587 61 -1005 59 -190 0 -399 -5
-465 -9z"/>
<path d="M6189 8233 c-1 -5 0 -34 1 -65 l2 -58 -31 0 c-29 0 -31 -3 -31 -35 0
-32 3 -35 29 -35 l29 0 4 -170 c4 -211 7 -217 131 -212 35 2 37 3 37 37 0 33
-2 35 -34 35 -22 0 -36 6 -40 16 -3 9 -6 78 -6 155 l0 139 35 0 c33 0 35 2 35
35 0 33 -2 35 -34 35 l-34 0 -7 65 -7 65 -39 0 c-22 0 -40 -3 -40 -7z"/>
<path d="M5620 8201 c0 -46 10 -61 40 -61 49 0 56 7 52 50 -4 40 -4 40 -48 40
-42 0 -44 -1 -44 -29z"/>
<path d="M6947 8204 c-4 -4 -7 -23 -7 -43 0 -66 -9 -84 -40 -77 -26 5 -28 2
-32 -29 -4 -33 -2 -35 24 -35 26 0 28 -3 27 -37 0 -21 -6 -92 -13 -158 -7 -66
-10 -133 -6 -150 7 -37 40 -55 103 -55 45 0 47 1 47 29 0 23 -6 31 -30 40 -35
12 -36 22 -19 198 l12 113 39 0 c38 0 39 1 36 33 -3 28 -7 32 -35 35 l-32 3 6
65 c6 64 6 64 -20 64 -14 0 -32 2 -39 5 -8 3 -17 2 -21 -1z"/>
<path d="M6022 8108 c-20 -5 -40 -21 -51 -39 l-19 -31 -7 30 c-6 29 -8 30 -48
25 -23 -3 -42 -6 -43 -7 -4 -6 33 -436 37 -441 4 -3 23 -3 43 1 l37 6 -7 163
c-7 157 -6 163 15 184 11 11 31 22 44 23 12 0 29 2 37 2 11 1 14 11 12 41 -5
50 -9 54 -50 43z"/>
<path d="M6455 8018 c-3 -51 -7 -141 -8 -200 -2 -94 0 -110 19 -135 39 -53
128 -56 178 -6 l26 26 0 -26 c0 -26 16 -37 55 -37 21 0 23 5 29 78 3 42 9 143
12 225 l7 147 -47 0 -46 0 -1 -77 c0 -43 -4 -120 -7 -171 -6 -82 -10 -96 -31
-113 -33 -27 -77 -25 -96 5 -14 20 -14 45 -6 192 6 92 10 169 8 170 -1 1 -21
5 -44 9 l-41 6 -7 -93z"/>
<path d="M5644 8065 c-6 -14 14 -249 33 -392 6 -42 6 -43 45 -43 22 0 41 5 43
13 2 6 -6 107 -18 222 l-22 210 -38 3 c-27 2 -39 -1 -43 -13z"/>
<path d="M5462 8052 c-8 -6 -16 -61 -23 -173 -5 -90 -11 -168 -13 -173 -1 -5
-17 31 -36 80 -18 49 -46 124 -63 167 l-29 78 -42 -6 c-22 -4 -43 -9 -45 -11
-2 -2 36 -98 85 -214 l89 -211 50 7 c27 3 51 7 52 8 2 2 53 424 53 441 0 16
-55 21 -78 7z"/>
<path d="M7238 8023 c-76 -48 -126 -266 -84 -368 30 -70 130 -102 210 -66 38
16 51 29 67 66 11 26 19 49 16 51 -2 3 -21 7 -40 11 -34 5 -37 3 -51 -31 -26
-63 -104 -69 -127 -9 -9 24 -6 119 3 129 2 1 53 -5 113 -15 61 -10 114 -15
118 -11 5 4 9 43 10 87 2 89 -11 120 -66 153 -41 25 -131 27 -169 3z m136 -65
c9 -12 16 -42 16 -65 0 -35 -3 -43 -19 -43 -21 0 -123 19 -128 23 -6 7 17 71
33 88 24 27 79 25 98 -3z"/>
<path d="M4461 7999 c-15 -6 -21 -14 -17 -25 3 -9 6 -21 6 -27 1 -31 16 -39
57 -28 l41 11 -10 40 c-11 43 -27 49 -77 29z"/>
<path d="M4875 7962 c-28 -6 -55 -32 -71 -67 l-12 -30 -8 29 c-6 27 -9 28 -47
22 -23 -4 -42 -8 -43 -9 -4 -3 101 -426 107 -431 8 -9 79 14 79 25 0 6 -13 64
-30 129 -46 181 -38 228 41 245 25 6 28 10 23 33 -12 49 -19 58 -39 54z"/>
<path d="M7875 7868 c-53 -54 -85 -137 -92 -238 -4 -59 -2 -83 11 -108 36 -69
134 -99 208 -63 42 20 78 64 78 95 0 18 -72 35 -78 18 -20 -62 -97 -84 -128
-37 -13 19 -15 38 -11 77 4 28 11 56 16 61 7 7 44 1 110 -16 55 -15 104 -27
109 -27 13 0 32 79 32 135 0 25 -7 59 -15 74 -19 38 -89 71 -149 71 -44 0 -53
-4 -91 -42z m150 -40 c24 -19 27 -26 22 -65 -2 -24 -7 -46 -10 -49 -2 -3 -34
3 -71 12 -71 18 -76 25 -51 74 27 53 66 63 110 28z"/>
<path d="M4517 7857 c-21 -6 -36 -15 -34 -21 2 -6 30 -104 62 -217 l58 -207
41 12 c23 7 41 17 40 22 -3 28 -119 424 -123 423 -3 -1 -23 -6 -44 -12z"/>
<path d="M4293 7786 c-17 -6 -34 -14 -37 -17 -3 -3 19 -73 49 -155 30 -82 55
-159 55 -170 0 -48 -67 -88 -102 -62 -10 7 -43 83 -74 168 -31 85 -59 158 -63
162 -8 9 -81 -12 -81 -22 0 -13 110 -310 125 -340 8 -16 25 -36 37 -44 49 -35
136 -7 168 53 18 34 20 35 26 13 4 -15 12 -21 21 -18 8 4 26 9 39 12 13 3 24
11 24 17 0 14 -141 400 -149 408 -3 4 -20 1 -38 -5z"/>
<path d="M8543 7684 c-65 -33 -134 -169 -141 -281 l-5 -73 40 -39 c43 -43 107
-66 154 -56 29 7 109 87 109 109 0 7 -17 18 -37 25 -31 12 -38 12 -42 0 -7
-22 -58 -69 -74 -69 -8 0 -27 10 -42 22 -25 19 -27 26 -22 67 7 53 40 139 75
194 52 79 138 51 125 -40 -5 -29 -2 -33 32 -48 21 -8 40 -13 43 -10 3 3 7 29
9 58 3 39 -1 60 -15 83 -37 59 -148 90 -209 58z"/>
<path d="M3865 7623 c-40 -21 -38 -18 -26 -42 11 -19 10 -20 -23 -6 -61 26
-134 -12 -157 -82 -20 -60 32 -212 101 -295 62 -74 156 -70 202 8 l22 38 18
-40 c24 -53 22 -81 -7 -109 -27 -28 -62 -32 -90 -11 -17 12 -24 12 -50 -1 -38
-20 -37 -17 -29 -37 8 -22 56 -46 91 -46 42 0 125 43 157 81 45 54 36 97 -75
346 -52 117 -96 213 -99 213 -3 -1 -18 -8 -35 -17z m6 -145 c52 -72 84 -190
61 -224 -15 -23 -51 -35 -72 -24 -41 22 -101 129 -116 204 -7 40 8 74 39 85
33 12 57 1 88 -41z"/>
<path d="M8921 7514 c-18 -14 -36 -35 -42 -45 -8 -16 -4 -22 25 -36 35 -16 36
-16 60 10 29 31 45 33 86 12 35 -18 41 -60 12 -95 -18 -22 -20 -22 -107 -10
-81 12 -93 11 -123 -4 -43 -22 -87 -111 -77 -155 14 -67 115 -113 176 -81 16
9 19 7 19 -14 0 -31 36 -66 67 -66 30 0 48 33 31 59 -11 17 -3 39 56 159 55
113 67 145 62 170 -9 37 -48 75 -106 101 -62 28 -102 27 -139 -5z m99 -234 c0
-19 -39 -89 -62 -110 -65 -61 -143 22 -87 94 18 23 27 26 85 26 38 0 64 -4 64
-10z"/>
<path d="M3366 7385 c-22 -8 -56 -30 -75 -50 -34 -33 -36 -39 -35 -98 0 -49 7
-74 31 -122 49 -94 89 -144 137 -167 55 -26 100 -19 158 25 55 42 73 90 57
153 -13 49 -17 51 -60 28 -20 -10 -28 -20 -25 -32 19 -62 18 -71 -8 -96 -27
-28 -46 -32 -77 -15 -20 10 -79 85 -79 100 0 4 45 33 100 64 112 64 109 55 47
142 -51 72 -103 93 -171 68z m66 -77 c9 -7 23 -25 32 -40 l17 -26 -62 -37
c-34 -20 -63 -35 -64 -33 -28 35 -33 103 -8 130 19 21 62 24 85 6z"/>
<path d="M6256 7123 l7 -248 -239 3 c-556 8 -1043 -69 -1584 -247 -270 -90
-563 -224 -925 -424 -105 -57 -125 -73 -125 -99 0 -25 35 -58 63 -58 19 0 25
-12 50 -96 69 -241 239 -612 375 -819 335 -512 915 -954 1624 -1237 86 -35
157 -67 158 -71 1 -4 -77 -89 -173 -187 l-173 -179 -95 8 c-81 7 -105 13 -157
42 l-62 34 0 163 c0 141 -3 168 -19 201 -27 53 -73 99 -107 107 -16 4 -110 1
-209 -7 -200 -16 -434 -15 -629 1 -71 5 -131 11 -132 13 -1 1 -19 106 -39 232
-47 302 -46 299 -72 303 -26 4 -28 -4 -44 -203 -13 -154 -16 -393 -9 -665 3
-104 0 -164 -8 -182 -44 -104 -609 -250 -1262 -328 -244 -29 -336 -100 -270
-208 39 -63 69 -68 705 -122 198 -16 369 -30 379 -30 41 0 -4 -20 -179 -78
-199 -67 -295 -85 -545 -103 -186 -13 -200 -15 -200 -34 0 -30 50 -37 225 -31
196 6 294 20 565 75 247 52 340 54 420 14 67 -34 100 -90 100 -166 0 -84 -40
-141 -120 -168 -45 -16 -61 1 -48 48 8 30 7 40 -10 62 -16 22 -27 26 -67 25
-41 0 -52 -5 -76 -32 -33 -37 -36 -60 -13 -108 11 -24 31 -41 69 -60 59 -28
74 -29 305 -5 226 24 273 37 802 220 242 83 297 96 429 96 109 0 119 -2 175
-30 43 -22 65 -41 81 -70 52 -91 7 -208 -87 -230 -38 -9 -80 27 -80 69 0 34
-25 66 -52 66 -21 0 -66 -44 -79 -77 -13 -34 -4 -69 27 -111 51 -66 148 -88
249 -54 33 11 103 23 155 27 131 9 235 30 359 72 143 48 372 140 566 228 205
94 288 119 385 119 124 0 196 -55 208 -160 6 -61 -35 -145 -82 -168 -48 -23
-69 -21 -61 4 20 62 -49 133 -105 110 -35 -15 -76 -57 -90 -94 -22 -59 29
-149 105 -186 58 -28 139 -24 208 9 55 27 139 107 157 151 8 20 22 32 39 36
70 15 202 59 256 86 77 39 307 182 510 319 180 120 216 140 298 164 122 35
247 17 309 -45 35 -34 38 -42 38 -92 0 -41 -5 -62 -21 -82 -27 -35 -72 -35
-96 -1 -47 67 -49 68 -77 61 -15 -4 -39 -18 -52 -31 -33 -33 -34 -117 -1 -166
52 -80 192 -105 295 -53 59 29 126 99 142 149 10 29 23 40 83 69 117 56 277
205 460 429 44 54 83 94 87 90 4 -4 17 -55 29 -113 59 -275 120 -459 174 -517
24 -27 65 -30 107 -8 57 30 65 88 26 203 -14 40 -21 72 -16 72 5 0 11 -9 15
-19 3 -10 25 -39 48 -64 85 -90 207 -86 207 7 0 49 -21 100 -82 201 -30 50
-112 193 -182 318 l-128 228 29 37 c52 68 118 124 181 154 54 26 72 30 127 26
78 -5 137 -41 173 -106 28 -49 24 -93 -11 -157 -32 -57 -62 -57 -103 -2 -36
49 -64 52 -104 11 -33 -32 -35 -99 -4 -141 34 -47 80 -65 154 -60 76 5 129 29
182 84 62 64 83 123 83 234 0 89 -2 99 -30 145 -39 63 -113 118 -195 146 -91
32 -242 31 -318 0 -29 -12 -56 -22 -59 -22 -19 0 41 45 120 91 234 134 620
411 646 464 11 23 12 42 3 97 -5 38 -16 75 -22 83 -17 21 -76 19 -145 -5 -52
-18 -175 -28 -175 -15 0 13 101 268 123 311 15 29 69 92 130 152 82 82 109
103 128 100 15 -2 25 2 27 12 9 47 -78 76 -137 46 -18 -10 -50 -33 -72 -53
-53 -48 -85 -42 -181 39 -103 87 -164 113 -259 113 -67 0 -83 -4 -153 -39 -94
-46 -184 -129 -306 -279 -47 -58 -94 -110 -105 -115 -12 -5 -55 -17 -96 -26
-98 -22 -106 -27 -91 -60 10 -23 18 -26 64 -27 29 0 84 -4 123 -8 68 -7 70 -7
113 26 43 32 75 40 100 25 22 -15 32 -75 32 -203 0 -113 -2 -128 -20 -144 -11
-10 -22 -26 -25 -36 -6 -17 -17 -19 -91 -19 -78 0 -88 -2 -120 -27 -32 -26
-34 -32 -34 -84 0 -66 4 -69 90 -69 51 0 60 -3 65 -21 4 -11 5 -22 3 -24 -23
-23 -84 -65 -94 -65 -19 0 -140 115 -176 167 -16 24 -48 55 -71 70 -22 14 -48
35 -57 46 -17 20 -17 20 -33 -4 -14 -19 -17 -48 -17 -146 0 -68 -4 -123 -9
-123 -21 0 -297 313 -477 540 -242 306 -239 299 -239 525 0 125 4 163 23 228
45 156 168 353 269 428 113 85 247 142 386 165 139 22 193 57 170 107 -9 18
-61 49 -205 120 -650 321 -1144 488 -1738 586 -195 33 -506 71 -577 71 -23 0
-44 4 -47 8 -3 5 -13 72 -21 148 -9 76 -26 186 -38 244 l-22 105 -33 3 -32 3
6 -248z m8 -485 c12 -203 17 -412 9 -405 -4 5 -53 115 -109 245 l-101 237 26
6 c14 4 58 7 98 8 l71 1 6 -92z m-134 -205 c67 -159 131 -308 141 -333 15 -37
22 -109 39 -385 11 -187 22 -365 25 -395 l5 -55 -108 -18 c-60 -9 -141 -28
-181 -42 l-72 -24 -66 36 c-46 25 -73 49 -92 78 -14 23 -172 333 -351 689
-250 497 -322 649 -311 655 33 21 548 73 778 79 l71 2 122 -287z m595 261 c72
-8 142 -17 156 -20 30 -6 27 2 314 -784 152 -418 223 -623 259 -748 15 -51 14
-54 -2 -47 -35 13 -243 75 -319 94 -97 25 -284 57 -383 66 l-75 7 -124 296
-124 296 -8 405 c-5 223 -11 419 -15 435 l-6 29 98 -7 c55 -4 158 -14 229 -22z
m515 -85 c107 -22 251 -56 320 -77 l124 -37 68 -225 c261 -862 303 -1020 312
-1165 3 -55 8 -116 12 -136 6 -35 6 -36 -32 -42 -22 -4 -83 -7 -138 -7 -95 0
-100 1 -157 35 -32 20 -96 53 -142 75 l-84 38 -27 104 c-36 131 -225 664 -450
1266 -42 111 -76 207 -76 213 0 12 7 11 270 -42z m-1818 -636 c181 -361 327
-658 325 -659 -1 -1 -198 106 -437 239 l-435 241 -184 334 c-100 184 -179 338
-175 342 22 21 508 158 564 159 10 0 125 -221 342 -656z m2625 381 c76 -30
143 -61 149 -67 19 -20 138 -469 128 -482 -5 -7 -31 -40 -59 -74 -63 -79 -129
-197 -156 -281 -11 -36 -23 -71 -25 -79 -2 -8 -7 -12 -9 -9 -3 2 -30 92 -60
199 -31 107 -103 349 -161 539 -57 190 -104 351 -104 358 0 13 79 -15 297
-104z m-3426 -199 c88 -159 158 -293 157 -297 -4 -10 -719 388 -735 410 -23
29 -40 20 242 123 88 32 164 57 168 56 5 -2 80 -133 168 -292z m3866 14 c117
-50 225 -103 240 -117 l27 -25 -79 -27 c-105 -34 -180 -69 -246 -114 -29 -19
-54 -34 -55 -33 -1 1 -21 72 -44 157 -23 85 -48 176 -55 203 -8 26 -11 47 -7
47 4 0 102 -41 219 -91z m-4150 -96 c517 -288 472 -259 511 -331 19 -35 33
-65 31 -67 -4 -3 -817 482 -842 504 -12 9 -13 61 -2 61 2 0 138 -75 302 -167z
m-482 -28 c126 -337 285 -677 397 -847 130 -199 336 -454 500 -619 169 -170
576 -466 850 -619 106 -59 142 -91 92 -82 -41 8 -306 118 -449 186 -387 186
-709 409 -976 675 -267 267 -418 488 -573 840 -60 138 -160 411 -168 459 -3
19 8 27 72 55 41 19 102 47 135 64 33 17 63 28 66 25 3 -4 27 -65 54 -137z
m235 77 c47 -29 251 -152 454 -274 l369 -223 262 -477 262 -477 -5 -129 c-4
-102 -1 -140 13 -188 23 -80 83 -194 150 -283 31 -40 54 -75 52 -78 -6 -5
-161 88 -297 179 -195 131 -454 332 -551 428 -179 179 -426 488 -540 677 -79
131 -209 408 -302 643 -115 291 -112 259 -25 256 69 -2 79 -6 158 -54z m1255
-610 l430 -239 37 -69 c21 -38 38 -73 38 -77 1 -30 -74 9 -452 234 l-424 253
-37 68 c-21 37 -34 68 -30 68 5 0 202 -107 438 -238z m1188 -38 l84 -199 -70
-3 c-38 -2 -71 -1 -74 2 -4 4 -32 334 -33 385 0 13 2 22 5 20 2 -3 42 -95 88
-205z m-1135 -135 c213 -127 391 -234 395 -238 4 -4 -21 -26 -55 -49 -35 -22
-95 -68 -135 -101 -59 -50 -79 -75 -109 -136 -20 -41 -39 -74 -40 -72 -3 3
-416 752 -440 800 -8 15 -12 27 -9 27 3 0 180 -104 393 -231z m516 -143 c36
-23 37 -25 18 -35 -31 -17 -37 -14 -55 24 -20 41 -15 42 37 11z m723 16 c13
-9 216 -489 211 -503 -2 -5 -81 34 -175 87 -122 67 -173 101 -173 113 0 23
-19 225 -25 274 l-5 37 77 0 c43 0 83 -4 90 -8z m-293 -54 c7 -62 8 -178 1
-178 -12 0 -295 163 -295 170 0 5 42 18 93 29 130 29 129 29 163 30 30 1 31 0
38 -51z m511 33 c173 -26 331 -63 496 -117 l136 -44 56 -227 c31 -126 59 -242
62 -260 8 -41 -14 -75 -59 -91 -39 -14 -47 -28 -35 -60 11 -28 46 -42 110 -42
27 0 66 -7 86 -15 29 -12 38 -13 45 -3 14 23 9 38 -13 38 -12 0 -47 11 -78 24
-31 13 -64 27 -73 30 -26 8 -22 25 9 37 31 11 70 1 110 -31 23 -18 28 -19 41
-6 13 12 10 22 -22 73 -21 35 -34 66 -31 75 15 38 174 29 207 -12 32 -39 21
-240 -15 -288 -5 -7 -29 -21 -53 -32 -49 -21 -53 -35 -24 -73 18 -23 18 -25 2
-29 -9 -2 -50 -2 -89 0 -78 5 -91 16 -50 46 22 16 22 16 -8 8 -37 -9 -113 -8
-142 2 -21 8 -22 7 -10 -23 16 -44 3 -48 -39 -12 -26 23 -40 29 -47 22 -31
-31 -37 12 -6 45 20 21 22 21 77 7 70 -19 154 -13 182 12 40 36 26 45 -66 45
-91 0 -117 8 -134 41 -9 15 -8 24 1 35 11 13 9 14 -12 9 -20 -5 -78 23 -280
134 -140 78 -257 147 -261 153 -5 7 -56 128 -114 268 -58 140 -108 261 -111
268 -7 16 -2 15 152 -7z m-670 -147 l173 -95 4 -77 c2 -42 2 -79 1 -81 -1 -2
-91 49 -200 114 -168 99 -202 123 -221 156 l-23 40 43 19 c24 11 45 20 47 20
2 0 81 -43 176 -96z m-298 -1 c11 -10 89 -148 173 -307 83 -159 196 -366 250
-460 l97 -171 7 -149 c6 -140 6 -148 -11 -141 -95 40 -258 76 -453 100 l-45 6
-204 370 c-230 418 -221 390 -161 509 32 64 92 121 217 208 83 56 101 61 130
35z m1768 -91 c85 -45 90 -49 93 -83 3 -34 6 -37 59 -53 31 -10 66 -28 79 -41
27 -28 47 -95 38 -131 -6 -23 -10 -26 -41 -21 -19 3 -42 16 -52 28 l-18 23
-23 -27 c-19 -22 -32 -27 -70 -27 -25 0 -51 -5 -58 -12 -6 -6 -13 -10 -15 -7
-5 5 -97 376 -97 389 0 16 10 12 105 -38z m-1471 -82 c179 -107 186 -112 186
-143 1 -18 7 -133 14 -257 13 -207 13 -241 2 -229 -16 16 -396 719 -396 733 0
3 2 6 4 6 2 0 88 -50 190 -110z m1972 -63 c23 -34 43 -69 46 -77 10 -28 -12
-144 -28 -153 -9 -5 -13 -16 -9 -27 9 -29 -42 -128 -91 -177 -24 -24 -48 -43
-52 -43 -12 0 -22 60 -22 136 0 48 -4 65 -20 79 -16 14 -17 19 -6 31 8 7 19
53 26 101 l13 87 -49 43 c-61 54 -52 63 66 63 l85 -1 41 -62z m-1452 -50 l170
-94 43 -113 c24 -62 42 -114 41 -115 -2 -2 -100 55 -218 125 -211 126 -215
129 -222 167 -12 66 -10 136 5 130 6 -3 88 -48 181 -100z m3040 34 c11 -12 20
-42 22 -78 l5 -58 -54 -57 c-44 -47 -60 -58 -86 -58 l-31 0 0 113 0 113 43 21
c53 27 79 28 101 4z m-1447 -186 c-1 -15 -11 -21 -40 -23 l-37 -3 6 43 c10 73
12 75 44 37 16 -19 29 -43 27 -54z m-1531 -82 l212 -126 54 -141 54 -141 -20
-28 c-16 -22 -20 -41 -19 -80 3 -62 -47 -200 -107 -299 l-38 -63 24 -26 c47
-49 22 -64 -50 -29 -52 25 -115 90 -204 208 -67 90 -70 96 -76 165 -4 40 -18
146 -31 237 -13 91 -26 217 -30 280 -3 63 -8 130 -11 149 -5 29 -3 33 12 27 9
-4 113 -63 230 -133z m464 -58 c107 -59 196 -109 197 -110 1 0 -9 -18 -23 -39
-19 -28 -23 -40 -14 -46 22 -14 -10 -23 -71 -21 -52 2 -71 9 -172 68 l-113 67
-42 110 c-23 61 -42 115 -42 119 0 5 19 -2 43 -16 23 -13 130 -73 237 -132z
m-1576 -187 c80 -147 146 -272 146 -277 0 -17 -64 -19 -84 -2 -42 37 -138 178
-183 267 -46 94 -48 99 -51 203 -3 93 -2 104 11 91 8 -8 80 -135 161 -282z
m2709 230 c45 -23 44 -21 182 -184 60 -71 176 -197 258 -281 l149 -151 -26
-18 c-22 -14 -40 -15 -109 -9 -45 3 -100 15 -122 24 -68 31 -131 95 -154 157
-37 96 -59 130 -123 188 -98 88 -172 96 -293 33 -33 -18 -63 -33 -67 -35 -3
-2 -9 11 -13 29 -7 29 -3 36 45 82 35 33 64 75 87 123 l34 72 57 -5 c31 -3 74
-14 95 -25z m1867 -77 l0 -60 -45 -7 c-67 -10 -75 -3 -75 60 0 61 3 64 73 65
l47 1 0 -59z m-172 -43 l3 -58 -41 0 -41 0 6 48 c10 70 12 74 42 70 27 -3 28
-6 31 -60z m-2905 -97 l88 -53 -3 -56 -3 -57 -50 -3 -50 -3 -40 107 c-22 59
-42 111 -44 117 -4 12 -10 14 102 -52z m2112 39 c36 0 44 -4 48 -22 4 -12 1
-33 -6 -48 -11 -22 -19 -25 -62 -25 -43 0 -51 3 -64 27 -12 21 -13 31 -3 53 8
18 18 25 28 21 9 -3 35 -6 59 -6z m815 -57 c-1 -16 -356 -250 -365 -241 -2 2
15 33 39 69 23 36 55 92 72 123 l29 56 113 0 c61 0 112 -3 112 -7z m-1938
-330 c34 -36 88 -150 88 -185 0 -24 -12 -36 -85 -83 -79 -50 -90 -55 -143 -55
-31 0 -74 3 -95 6 l-37 7 74 141 c127 241 117 226 146 211 14 -7 37 -26 52
-42z m-4139 17 c14 0 17 -9 17 -50 l0 -50 -43 0 c-54 0 -67 13 -67 68 l0 45
38 -7 c20 -3 45 -6 55 -6z m787 -34 c0 -48 -9 -56 -66 -56 -22 0 -34 5 -34 14
0 7 -3 27 -6 44 -7 33 2 38 74 41 31 1 32 0 32 -43z m114 11 c18 -24 19 -29 6
-37 -8 -5 -27 -10 -42 -10 -26 0 -28 3 -28 41 0 36 2 40 21 37 12 -2 31 -16
43 -31z m-753 13 c16 0 19 -8 19 -50 l0 -50 -50 0 -50 0 0 56 0 57 31 -7 c17
-3 40 -6 50 -6z m487 -43 c3 -44 2 -47 -21 -47 -14 0 -39 -3 -56 -6 l-31 -6 0
50 0 51 38 4 c65 7 67 6 70 -46z m-320 -14 l3 -53 -50 0 -51 0 0 56 0 55 48
-3 47 -3 3 -52z m162 7 c0 -50 0 -50 -32 -50 -18 0 -43 -3 -55 -6 -22 -6 -23
-3 -23 44 0 55 3 58 78 61 l32 1 0 -50z m1783 -75 c49 -14 102 -32 118 -41 29
-14 47 -39 37 -50 -3 -2 -66 13 -139 34 -189 56 -212 59 -239 32 -19 -19 -22
-31 -18 -74 6 -75 33 -122 115 -203 l73 -73 -50 0 c-45 0 -55 4 -95 41 -27 25
-60 71 -81 115 -33 66 -36 79 -32 137 2 39 11 75 22 92 l18 28 92 -6 c52 -3
128 -17 179 -32z m-1313 -14 c0 -35 -3 -39 -31 -45 -70 -14 -79 -10 -79 33 0
37 2 40 33 44 79 10 77 10 77 -32z m-160 -21 c0 -25 -5 -40 -12 -40 -7 0 -30
-3 -50 -6 l-38 -7 0 41 c0 41 0 41 43 45 23 2 45 4 50 5 4 1 7 -16 7 -38z
m-762 -14 c5 -40 -7 -47 -61 -40 -46 7 -47 7 -47 43 l0 37 53 -6 c48 -5 52 -7
55 -34z m610 -3 l-3 -38 -52 -3 -53 -3 0 35 c0 37 8 42 78 45 32 1 33 0 30
-36z m-468 -9 l0 -35 -47 3 c-46 3 -48 4 -51 36 l-3 32 50 0 51 0 0 -36z m310
2 c0 -38 -12 -46 -71 -46 -38 0 -39 1 -39 34 0 39 8 44 68 45 41 1 42 0 42
-33z m-160 -11 l0 -35 -50 0 -50 0 0 35 0 35 50 0 50 0 0 -35z m630 -79 l0
-44 -55 -4 -55 -3 0 42 c0 46 -7 42 93 51 14 2 17 -6 17 -42z m-160 -16 c0
-25 -5 -40 -12 -40 -7 0 -30 -3 -50 -6 l-38 -7 0 41 c0 37 3 41 28 45 71 11
72 10 72 -33z m-791 24 c26 -6 31 -11 31 -36 0 -29 -1 -29 -47 -26 -46 3 -48
4 -51 36 -4 35 5 38 67 26z m641 -38 c0 -31 -3 -34 -37 -40 -70 -11 -73 -10
-73 33 l0 40 48 3 c61 4 62 3 62 -36z m-470 -1 c0 -35 0 -35 -45 -35 -45 0
-45 0 -45 35 0 35 0 35 45 35 45 0 45 0 45 -35z m310 -5 l0 -40 -55 0 -55 0 0
34 c0 34 1 35 43 39 23 2 48 4 55 5 8 1 12 -12 12 -38z m-160 -6 l0 -37 -37 7
c-21 3 -44 6 -50 6 -8 0 -13 13 -13 30 0 29 1 30 50 30 l50 0 0 -36z m1659
-104 l60 -80 -214 0 c-118 0 -215 2 -215 5 0 3 39 25 88 49 48 25 110 58 137
75 28 16 58 30 67 30 9 1 42 -33 77 -79z m-1029 31 c0 -25 -5 -27 -62 -36 -46
-7 -48 -6 -48 17 0 34 6 38 62 38 41 0 48 -3 48 -19z m-160 -20 c0 -31 -18
-41 -72 -41 -24 0 -28 4 -28 29 0 25 5 30 28 34 67 10 72 9 72 -22z m-492 13
c32 -9 28 -34 -5 -34 -43 0 -73 11 -73 26 0 15 37 18 78 8z m342 -24 c0 -30
-1 -30 -55 -30 -52 0 -55 2 -55 24 0 25 13 31 83 35 24 1 27 -3 27 -29z m-615
-25 c367 -68 1158 -108 2150 -108 744 -1 1144 21 1620 88 283 39 385 49 403
37 23 -16 -304 -99 -549 -141 -518 -89 -1299 -137 -1814 -112 -696 34 -1486
121 -1913 212 -81 17 -102 25 -102 39 0 25 8 29 43 19 18 -5 91 -20 162 -34z
m455 19 c0 -22 -3 -25 -22 -20 -13 3 -38 6 -55 6 -26 0 -33 4 -33 20 0 18 7
20 55 20 53 0 55 -1 55 -26z m4715 -51 l12 -58 -69 -137 c-121 -240 -247 -409
-392 -526 -43 -34 -81 -62 -85 -62 -5 0 -11 26 -13 58 -14 153 -157 293 -331
324 l-62 11 35 15 c19 7 91 37 160 65 161 66 508 239 630 315 52 33 97 58 99
56 2 -2 9 -29 16 -61z m-1287 -516 c-9 -7 -56 -40 -105 -74 -48 -34 -131 -100
-184 -145 -53 -46 -147 -127 -208 -180 -62 -54 -133 -111 -158 -127 -52 -35
-141 -71 -193 -78 l-35 -5 3 80 c2 44 -1 98 -7 120 -17 60 -70 133 -124 169
l-48 32 33 5 c18 3 98 15 178 27 210 30 461 82 666 138 197 54 206 56 182 38z
m-3973 -187 c129 -9 725 -40 769 -40 26 0 11 -13 -34 -30 -19 -7 -177 -82
-350 -165 -330 -160 -411 -193 -495 -202 l-50 -6 36 39 c52 55 70 97 70 160 0
80 -26 148 -77 202 -24 25 -44 47 -44 49 0 5 22 4 175 -7z m2445 -57 c0 -5
-44 -28 -98 -53 -53 -25 -209 -108 -347 -184 -278 -155 -378 -204 -479 -235
-63 -19 -136 -28 -136 -16 0 3 13 23 29 45 88 121 59 309 -62 400 l-47 35 547
5 c302 3 558 6 571 8 12 1 22 -1 22 -5z"/>
<path d="M9326 7338 c-29 -46 -216 -359 -216 -363 0 -1 16 -13 37 -25 29 -17
38 -18 45 -8 4 7 42 71 84 141 82 136 112 165 156 148 35 -13 51 -37 44 -66
-3 -13 -44 -88 -91 -165 l-85 -140 33 -20 c17 -11 36 -18 42 -17 13 5 182 284
196 325 8 25 8 40 -1 62 -21 51 -105 89 -155 70 -24 -9 -26 -8 -20 7 11 31 11
33 -22 54 l-32 20 -15 -23z"/>
<path d="M2979 7150 c-20 -10 -50 -35 -67 -55 -26 -29 -32 -44 -32 -82 0 -39
5 -50 39 -84 44 -45 82 -50 167 -24 67 20 87 19 112 -8 29 -30 28 -62 -3 -92
-33 -34 -77 -33 -104 1 l-20 25 -30 -22 c-17 -13 -31 -26 -31 -29 0 -12 55
-59 82 -69 55 -21 150 31 189 104 21 39 22 47 11 83 -7 23 -26 55 -43 71 -37
37 -79 40 -181 14 -64 -16 -68 -16 -87 1 -59 53 16 143 76 92 l27 -23 33 21
c18 11 33 24 33 27 0 4 -16 21 -35 38 -42 36 -82 40 -136 11z"/>
<path d="M9725 7036 c-42 -18 -144 -131 -171 -191 -39 -82 -31 -136 27 -193
47 -46 100 -58 157 -36 77 29 179 149 203 237 14 52 4 91 -34 134 -52 59 -118
77 -182 49z m131 -91 c29 -45 -4 -113 -104 -217 -51 -52 -90 -62 -124 -31 -42
38 -8 121 90 222 41 43 54 51 85 51 28 0 40 -6 53 -25z"/>
<path d="M2531 6799 c-15 -16 -21 -36 -21 -67 0 -43 -1 -44 -18 -29 -25 23
-31 22 -64 -10 l-27 -26 112 -120 c62 -65 131 -140 154 -166 l42 -46 32 32 32
31 -106 116 c-93 100 -107 120 -107 150 0 23 9 45 27 66 l26 32 -30 30 -30 30
-22 -23z"/>
<path d="M10074 6770 c-11 -4 -34 -24 -52 -44 -42 -48 -41 -84 4 -179 31 -66
34 -78 23 -99 -29 -55 -67 -61 -110 -19 -34 34 -36 59 -9 93 l19 25 -28 27
-29 28 -25 -34 c-38 -49 -41 -76 -15 -128 30 -59 104 -110 160 -110 35 0 47 7
84 44 56 55 58 91 9 195 -27 61 -32 79 -23 95 23 43 63 48 96 13 26 -28 27
-45 6 -76 -16 -22 -15 -24 12 -47 16 -13 32 -23 37 -24 12 0 47 64 47 88 0 51
-57 119 -122 146 -41 18 -54 19 -84 6z"/>
<path d="M2256 6499 c-34 -9 -82 -52 -102 -91 -20 -39 -17 -107 6 -145 45 -75
156 -163 229 -183 37 -10 48 -9 86 10 93 45 125 149 70 231 l-28 43 -27 -34
-28 -35 20 -27 c41 -58 1 -131 -63 -115 -28 7 -98 57 -99 71 0 4 26 38 58 75
88 101 87 99 71 117 -23 27 -100 76 -133 84 -17 3 -44 3 -60 -1z m47 -82 c18
-8 38 -21 46 -30 12 -15 8 -23 -30 -65 -24 -26 -46 -48 -50 -50 -11 -5 -49 40
-55 65 -11 44 11 82 54 92 1 1 17 -5 35 -12z"/>
<path d="M10368 6446 c-79 -29 -196 -135 -225 -204 -27 -65 8 -149 81 -193 42
-25 72 -24 134 7 l52 26 -26 34 -26 33 -37 -21 c-64 -37 -124 0 -107 66 8 34
120 141 174 167 50 25 84 16 103 -25 10 -20 8 -31 -11 -61 l-23 -37 30 -30 30
-30 26 33 c38 52 43 91 17 145 -38 78 -120 117 -192 90z"/>
<path d="M1903 6095 c-33 -33 -35 -39 -31 -85 5 -46 4 -48 -14 -39 -11 6 -21
9 -22 7 -1 -2 -12 -17 -24 -34 l-21 -31 251 -162 c137 -89 251 -161 252 -159
36 51 48 70 45 72 -2 2 -39 26 -81 54 -76 49 -77 50 -47 56 49 10 89 57 89
106 0 54 -19 88 -80 143 -74 67 -160 107 -228 107 -49 0 -58 -4 -89 -35z m183
-91 c113 -68 151 -121 120 -169 -13 -19 -25 -25 -54 -25 -72 0 -232 118 -232
171 0 67 75 77 166 23z"/>
<path d="M10600 6054 c-74 -34 -153 -95 -180 -139 -57 -92 22 -235 130 -235
17 0 46 7 66 15 l35 14 -23 36 c-16 23 -28 33 -38 28 -37 -16 -81 -15 -100 2
-40 37 -13 106 57 147 l29 17 64 -99 63 -99 42 29 c57 39 102 92 110 130 5 23
0 45 -20 85 -47 96 -127 120 -235 69z m160 -64 c32 -32 26 -73 -16 -110 l-36
-32 -39 59 c-22 32 -39 61 -39 64 0 9 64 38 88 38 12 1 31 -8 42 -19z"/>
<path d="M10785 5618 c-109 -49 -201 -91 -203 -93 -2 -2 5 -21 15 -43 l18 -40
140 63 c185 84 187 84 225 47 58 -58 41 -76 -152 -162 -79 -35 -147 -66 -151
-70 -4 -4 0 -24 9 -44 14 -29 22 -35 38 -30 56 18 322 146 342 165 48 45 20
148 -48 179 -37 16 -38 18 -19 31 20 14 20 15 3 50 l-17 36 -200 -89z"/>
<path d="M1604 5445 c-39 -16 -70 -59 -85 -116 -17 -64 -5 -113 35 -144 44
-34 61 -32 73 9 10 31 8 36 -18 55 -72 53 -4 157 69 105 20 -14 22 -24 22
-102 0 -102 11 -128 65 -159 60 -34 123 -31 159 6 33 34 46 104 26 142 -11 19
-10 24 0 27 53 18 82 104 39 115 -12 3 -28 0 -36 -9 -8 -8 -16 -14 -18 -14 -2
0 -59 20 -127 43 -161 57 -167 58 -204 42z m232 -141 c45 -19 77 -62 69 -94
-13 -52 -49 -64 -104 -35 -35 18 -41 32 -41 101 0 61 -2 61 76 28z"/>
<path d="M11128 5223 c-23 -6 -22 -17 2 -105 11 -39 18 -73 17 -74 -2 -2 -79
21 -173 51 -133 43 -176 53 -199 46 -36 -10 -36 -7 6 -168 l33 -125 34 6 c19
3 36 7 38 8 1 2 -8 42 -21 88 -13 46 -22 86 -20 89 3 2 79 -20 171 -48 149
-47 170 -51 201 -40 21 7 32 16 29 24 -2 7 -19 67 -36 134 -34 125 -35 127
-82 114z"/>
<path d="M1458 4956 c-22 -7 -39 -22 -50 -46 -24 -47 -23 -80 5 -121 l23 -34
-33 -31 c-29 -27 -33 -38 -33 -81 0 -36 6 -58 21 -77 l20 -26 -24 0 c-22 0
-25 -5 -29 -40 -4 -47 -23 -41 227 -70 99 -12 187 -23 196 -26 13 -3 18 5 23
37 4 23 5 44 2 46 -2 3 -71 13 -153 24 -81 10 -158 21 -170 24 -31 7 -57 49
-49 80 12 46 33 48 217 25 94 -12 172 -20 173 -18 2 1 6 21 8 44 l6 41 -147
17 c-207 25 -231 35 -231 98 0 54 33 58 252 29 150 -19 148 -20 148 40 0 36
17 32 -342 72 -15 2 -42 -1 -60 -7z"/>
<path d="M10911 4750 c-46 -11 -72 -40 -78 -88 -7 -49 10 -95 44 -122 23 -18
23 -19 5 -29 -23 -12 -35 -51 -26 -86 5 -19 13 -25 35 -25 19 0 29 5 29 14 0
24 17 28 169 42 161 15 187 25 208 85 7 20 10 54 7 84 -11 93 -49 135 -119
135 l-41 0 4 -40 c3 -33 8 -40 26 -40 40 0 66 -27 66 -70 0 -43 -18 -60 -63
-60 -30 0 -49 22 -72 85 -26 70 -44 96 -82 111 -35 15 -60 16 -112 4z m100
-90 c15 -9 69 -96 69 -113 0 -3 -22 -7 -48 -11 -83 -11 -132 18 -132 78 0 44
64 71 111 46z"/>
<path d="M3805 1870 c-184 -23 -304 -98 -370 -233 -45 -93 -60 -195 -45 -304
27 -202 134 -298 454 -409 77 -26 160 -62 185 -79 125 -83 144 -309 34 -406
-53 -46 -97 -61 -180 -61 -171 1 -263 103 -263 292 l0 50 -130 0 -130 0 0 -57
c0 -32 7 -89 15 -126 53 -253 230 -370 535 -354 183 9 314 67 396 174 96 126
119 374 48 520 -52 108 -150 176 -360 252 -219 78 -287 120 -325 197 -46 97
-24 241 46 303 83 72 240 68 316 -8 41 -40 59 -91 59 -163 l0 -48 130 0 130 0
0 68 c0 203 -105 338 -295 380 -71 16 -180 21 -250 12z"/>
<path d="M6018 1870 c-120 -15 -212 -55 -290 -127 -130 -123 -166 -371 -79
-548 58 -117 159 -184 408 -269 158 -54 177 -63 225 -113 47 -49 68 -108 68
-194 0 -151 -89 -241 -239 -241 -171 -1 -255 79 -269 256 l-7 81 -127 3 -128
3 0 -63 c1 -190 88 -355 224 -421 157 -77 405 -76 570 1 79 37 121 73 167 144
53 83 72 171 67 311 -5 140 -32 210 -113 286 -62 59 -126 92 -300 156 -71 26
-151 58 -176 71 -99 49 -146 113 -156 209 -16 153 77 265 220 265 143 0 227
-85 227 -229 l0 -41 130 0 130 0 0 58 c0 65 -22 168 -46 213 -25 50 -85 109
-134 134 -99 50 -240 71 -372 55z"/>
<path d="M7468 1870 c-215 -26 -359 -144 -403 -331 -27 -115 -16 -243 28 -339
27 -58 117 -147 187 -184 30 -17 128 -56 219 -87 169 -60 216 -87 259 -149 54
-79 57 -214 7 -296 -72 -118 -284 -146 -392 -51 -50 44 -75 106 -82 202 l-6
80 -127 3 -128 3 0 -69 c0 -84 30 -206 65 -267 15 -24 51 -67 81 -94 91 -84
216 -118 397 -108 338 18 498 186 485 513 -4 101 -7 118 -36 177 -36 73 -107
144 -183 183 -26 13 -113 48 -193 78 -81 31 -170 68 -198 83 -93 51 -138 127
-138 236 0 163 139 262 305 216 88 -25 134 -88 143 -196 l5 -63 128 0 129 0 0
48 c0 168 -70 301 -190 362 -86 44 -239 65 -362 50z"/>
<path d="M4860 1025 l0 -815 130 0 130 0 0 815 0 815 -130 0 -130 0 0 -815z"/>
<path d="M8840 1835 c0 -5 -441 -1561 -456 -1607 -5 -17 6 -18 130 -18 l135 0
14 48 c8 26 31 116 53 199 l39 153 240 0 240 0 51 -198 50 -197 137 -3 c107
-2 136 0 132 10 -3 10 -260 984 -416 1581 l-10 37 -169 0 c-94 0 -170 -2 -170
-5z m260 -618 c49 -214 90 -390 90 -393 0 -2 -85 -4 -190 -4 -131 0 -190 3
-190 11 0 13 178 758 187 779 7 20 2 43 103 -393z"/>
</g>
</svg>
